<?xml version="1.0" encoding="UTF-8"?>
<!DOCTYPE svg PUBLIC "-//W3C//DTD SVG 1.1//EN" "http://www.w3.org/Graphics/SVG/1.1/DTD/svg11.dtd">
<svg xmlns="http://www.w3.org/2000/svg" version="1.1" width="360px" height="360px" style="shape-rendering:geometricPrecision; text-rendering:geometricPrecision; image-rendering:optimizeQuality; fill-rule:evenodd; clip-rule:evenodd" xmlns:xlink="http://www.w3.org/1999/xlink">
<g><path style="opacity:0.991" fill="#39aee4" d="M 163.5,0.5 C 225.819,-2.90748 277.319,18.7592 318,65.5C 356.928,115.476 367.928,171.143 351,232.5C 325.181,304.647 274.347,346.48 198.5,358C 121.743,362.542 63.2426,332.375 23,267.5C -0.481606,223.979 -5.81494,178.312 7,130.5C 32.4272,54.9008 84.5939,11.5675 163.5,0.5 Z"/></g>
<g><path style="opacity:1" fill="#fcfdfe" d="M 164.5,7.5 C 245.001,5.64391 302.835,40.6439 338,112.5C 357.602,162.372 355.602,211.372 332,259.5C 292.063,327.387 232.563,357.554 153.5,350C 94.5978,338.742 51.4312,306.575 24,253.5C -0.063078,198.656 2.27026,144.989 31,92.5C 62.1663,43.3278 106.666,14.9944 164.5,7.5 Z"/></g>
<g><path style="opacity:1" fill="#0fa8e2" d="M 164.5,17.5 C 228.677,14.241 279.177,38.5743 316,90.5C 345.191,138.978 349.525,189.645 329,242.5C 326.82,248.361 323.987,253.861 320.5,259C 315.238,260.439 309.904,260.772 304.5,260C 297.864,257.017 291.197,254.017 284.5,251C 267.085,245.828 250.752,248.162 235.5,258C 229.357,260.345 223.024,261.011 216.5,260C 210.319,256.743 203.985,253.743 197.5,251C 180.076,245.873 163.743,248.207 148.5,258C 136.587,262.423 125.587,260.757 115.5,253C 103.511,248.249 91.1782,247.249 78.5,250C 70.9501,253.608 63.2834,256.942 55.5,260C 51.5,260.667 47.5,260.667 43.5,260C 41.6711,259.727 40.1711,258.893 39,257.5C 5.77705,189.957 13.1104,127.29 61,69.5C 89.2815,39.776 123.781,22.4426 164.5,17.5 Z"/></g>
<g><path style="opacity:1" fill="#fbfdfe" d="M 247.5,58.5 C 247.549,70.5437 242.215,79.7104 231.5,86C 227.581,87.8618 223.581,89.5285 219.5,91C 208.217,92.5499 196.883,92.8833 185.5,92C 172.678,89.2943 160.011,85.961 147.5,82C 141.207,80.7253 134.874,80.392 128.5,81C 123.247,82.8085 118.247,84.8085 113.5,87C 123.749,73.9623 137.249,67.7956 154,68.5C 163.53,68.962 173.03,69.7953 182.5,71C 194.167,71.6667 205.833,71.6667 217.5,71C 228.71,69.4387 238.71,65.272 247.5,58.5 Z"/></g>
<g><path style="opacity:1" fill="#fafdfe" d="M 94.5,92.5 C 103.683,93.1897 106.517,97.8564 103,106.5C 100.806,109.181 97.9727,110.681 94.5,111C 88.8333,111.333 83.1667,111.667 77.5,112C 72.6329,114.507 69.7996,118.34 69,123.5C 76.529,114.661 85.3623,113.161 95.5,119C 103.954,128.054 104.787,137.887 98,148.5C 88.8434,158.137 78.3434,159.97 66.5,154C 58.6945,147.209 55.8612,138.709 58,128.5C 58.5169,117.231 63.0169,108.065 71.5,101C 74.0891,99.8035 76.7558,98.8035 79.5,98C 83.9177,97.7923 88.251,97.1256 92.5,96C 93.305,94.8873 93.9717,93.7206 94.5,92.5 Z"/></g>
<g><path style="opacity:1" fill="#fcfdfe" d="M 217.5,110.5 C 224.852,108.759 230.352,111.092 234,117.5C 234.494,115.866 234.66,114.199 234.5,112.5C 240.5,112.5 246.5,112.5 252.5,112.5C 251.169,122.158 249.836,131.825 248.5,141.5C 248.679,145.046 250.013,148.046 252.5,150.5C 248.573,155.977 243.239,157.811 236.5,156C 233.547,153.937 231.714,151.104 231,147.5C 226.585,154.976 220.085,157.809 211.5,156C 203.531,148.997 200.697,140.164 203,129.5C 205.051,120.96 209.884,114.627 217.5,110.5 Z"/></g>
<g><path style="opacity:1" fill="#fbfdfe" d="M 124.5,111.5 C 130.925,111.13 137.258,111.63 143.5,113C 153.46,119.744 154.127,127.41 145.5,136C 138.407,138.593 131.074,140.093 123.5,140.5C 125.749,144.643 129.249,146.643 134,146.5C 138.644,145.675 143.144,144.341 147.5,142.5C 147.833,142.833 148.167,143.167 148.5,143.5C 140.16,156.916 128.827,160.416 114.5,154C 106.931,147.504 104.431,139.338 107,129.5C 110.353,120.982 116.186,114.982 124.5,111.5 Z"/></g>
<g><path style="opacity:1" fill="#fbfdfe" d="M 166.5,111.5 C 177.854,111.34 189.187,111.674 200.5,112.5C 198.899,126.839 197.233,141.172 195.5,155.5C 189.833,155.5 184.167,155.5 178.5,155.5C 179.423,143.781 180.757,132.115 182.5,120.5C 180.5,120.5 178.5,120.5 176.5,120.5C 175.751,132.091 172.918,143.091 168,153.5C 160.51,159.292 153.676,158.626 147.5,151.5C 151.833,149.332 155,145.999 157,141.5C 160.761,132.196 162.928,122.53 163.5,112.5C 164.791,112.737 165.791,112.404 166.5,111.5 Z"/></g>
<g><path style="opacity:1" fill="#fbfdfe" d="M 276.5,111.5 C 286.199,111.275 295.866,111.608 305.5,112.5C 305.101,122.557 304.101,132.557 302.5,142.5C 303.044,146.311 304.21,149.645 306,152.5C 301.267,157.366 295.767,158.532 289.5,156C 287.951,154.786 286.785,153.286 286,151.5C 285.466,147.141 285.632,142.808 286.5,138.5C 285.5,138.5 284.5,138.5 283.5,138.5C 282.842,144.975 280.175,150.475 275.5,155C 268.886,159.008 263.052,158.174 258,152.5C 257.202,150.741 257.369,149.074 258.5,147.5C 263.046,145.056 267.046,141.889 270.5,138C 261.516,132.467 260.183,125.467 266.5,117C 269.767,114.87 273.1,113.037 276.5,111.5 Z"/></g>
<g><path style="opacity:1" fill="#1ba9e2" d="M 282.5,120.5 C 284.5,120.5 286.5,120.5 288.5,120.5C 288.058,124.154 287.724,127.821 287.5,131.5C 281.335,132.171 278.835,129.504 280,123.5C 280.698,122.309 281.531,121.309 282.5,120.5 Z"/></g>
<g><path style="opacity:1" fill="#29abe3" d="M 129.5,120.5 C 135.375,120.636 136.875,123.303 134,128.5C 130.922,130.931 127.422,131.931 123.5,131.5C 123.862,126.837 125.862,123.171 129.5,120.5 Z"/></g>
<g><path style="opacity:1" fill="#25aae3" d="M 226.5,121.5 C 231.594,122.488 233.927,125.655 233.5,131C 233.344,135.136 232.177,138.969 230,142.5C 222.701,146.399 219.534,144.065 220.5,135.5C 220.009,129.606 222.009,124.939 226.5,121.5 Z"/></g>
<g><path style="opacity:1" fill="#28abe3" d="M 78.5,124.5 C 84.3389,124.441 86.6722,127.441 85.5,133.5C 85.4389,136.903 84.9389,140.236 84,143.5C 77.2821,149.684 73.7821,148.018 73.5,138.5C 73.5899,133.228 75.2566,128.561 78.5,124.5 Z"/></g>
<g><path style="opacity:1" fill="#fbfdfe" d="M 245.5,161.5 C 253.09,159.855 258.923,162.188 263,168.5C 263.251,166.567 263.751,164.734 264.5,163C 270.157,162.501 275.824,162.334 281.5,162.5C 280.29,172.011 278.957,181.511 277.5,191C 277.724,195.325 278.891,199.158 281,202.5C 274.808,208.603 268.474,208.936 262,203.5C 261.138,201.913 260.471,200.246 260,198.5C 255.014,206.161 248.181,208.661 239.5,206C 233.69,201.211 231.023,195.044 231.5,187.5C 231.499,176.159 236.166,167.492 245.5,161.5 Z"/></g>
<g><path style="opacity:1" fill="#fbfdfe" d="M 88.5,161.5 C 95.3032,161.149 99.8032,164.149 102,170.5C 106.208,164.814 111.708,161.981 118.5,162C 124.74,163.908 128.573,168.075 130,174.5C 131.66,183.508 129.993,191.842 125,199.5C 118.86,208.99 111.027,210.823 101.5,205C 100.789,203.745 99.956,202.579 99,201.5C 97.6207,207.533 95.1207,213.033 91.5,218C 87.2851,220.944 82.6184,222.111 77.5,221.5C 79.4983,206.506 81.4983,191.506 83.5,176.5C 83.3333,174.833 83.1667,173.167 83,171.5C 79.985,169.484 79.8184,167.317 82.5,165C 84.7274,164.059 86.7274,162.892 88.5,161.5 Z"/></g>
<g><path style="opacity:1" fill="#fafcfe" d="M 154.5,161.5 C 163.896,159.909 171.729,162.576 178,169.5C 180.799,182.002 175.632,188.835 162.5,190C 158.789,190.175 155.122,190.675 151.5,191.5C 152.693,193.527 154.36,195.027 156.5,196C 162.984,197.196 169.15,196.363 175,193.5C 175.5,193.833 176,194.167 176.5,194.5C 168.081,207.138 156.747,210.638 142.5,205C 129.846,191.167 130.846,178.167 145.5,166C 148.592,164.454 151.592,162.954 154.5,161.5 Z"/></g>
<g><path style="opacity:1" fill="#fbfdfe" d="M 189.5,161.5 C 194.907,161.125 199.073,163.125 202,167.5C 202.772,171.89 202.606,176.223 201.5,180.5C 205.489,181.441 208.655,180.107 211,176.5C 211.664,173.484 211.164,170.651 209.5,168C 212.286,162.77 216.62,161.103 222.5,163C 229.098,166.797 230.264,171.963 226,178.5C 223.278,181.444 220.111,183.777 216.5,185.5C 219.031,191.864 223.198,196.864 229,200.5C 229.507,201.996 229.007,203.163 227.5,204C 211.33,211.678 203.33,206.511 203.5,188.5C 202.5,188.5 201.5,188.5 200.5,188.5C 199.553,194.466 198.886,200.466 198.5,206.5C 192.833,206.5 187.167,206.5 181.5,206.5C 182.671,196.975 184.004,187.475 185.5,178C 186.272,173.722 184.938,170.388 181.5,168C 181.759,166.739 182.426,165.739 183.5,165C 185.432,163.541 187.432,162.375 189.5,161.5 Z"/></g>
<g><path style="opacity:1" fill="#2face3" d="M 156.5,171.5 C 164.49,172.278 165.49,175.444 159.5,181C 156.937,182.079 154.271,182.579 151.5,182.5C 151.818,178.199 153.485,174.532 156.5,171.5 Z"/></g>
<g><path style="opacity:1" fill="#25aae3" d="M 255.5,172.5 C 260.38,173.392 262.713,176.392 262.5,181.5C 262.044,185.702 260.877,189.702 259,193.5C 256.582,195.68 253.916,196.013 251,194.5C 249.445,189.618 249.112,184.618 250,179.5C 250.967,176.379 252.8,174.046 255.5,172.5 Z"/></g>
<g><path style="opacity:1" fill="#22aae3" d="M 105.5,173.5 C 111.374,173.89 113.707,177.057 112.5,183C 112.776,186.786 111.943,190.286 110,193.5C 107.294,196.978 104.294,197.311 101,194.5C 98.0515,186.508 99.5515,179.508 105.5,173.5 Z"/></g>
<g><path style="opacity:1" fill="#20aae2" d="M 86.5,270.5 C 91.1785,270.334 95.8452,270.501 100.5,271C 106.287,273.394 111.954,276.06 117.5,279C 135.937,284.985 153.27,282.652 169.5,272C 177.604,269.807 185.604,270.14 193.5,273C 209.918,283.65 227.251,285.317 245.5,278C 260.993,267.808 276.326,268.141 291.5,279C 295.725,280.579 300.059,281.746 304.5,282.5C 302.466,285.369 299.966,287.702 297,289.5C 276.179,278.333 255.679,278.833 235.5,291C 228.609,293.825 221.609,294.158 214.5,292C 192.625,278.496 170.625,278.163 148.5,291C 142.672,293.227 136.672,293.893 130.5,293C 123.167,289.667 115.833,286.333 108.5,283C 93.2942,279.337 78.9609,281.337 65.5,289C 61.6486,288.358 58.6486,286.191 56.5,282.5C 62.3265,281.169 67.9931,279.336 73.5,277C 77.657,274.255 81.9904,272.088 86.5,270.5 Z"/></g>
<g><path style="opacity:1" fill="#11a8e2" d="M 84.5,303.5 C 90.1764,303.334 95.8431,303.501 101.5,304C 108.565,307.865 115.898,311.198 123.5,314C 133.576,316.138 143.576,315.804 153.5,313C 159.5,310 165.5,307 171.5,304C 177.167,303.333 182.833,303.333 188.5,304C 195.565,307.865 202.898,311.198 210.5,314C 220.576,316.138 230.576,315.804 240.5,313C 246.712,309.727 253.046,306.727 259.5,304C 264.833,303.333 270.167,303.333 275.5,304C 276.833,304.667 278.167,305.333 279.5,306C 242.823,333.838 201.49,344.838 155.5,339C 127.835,334.496 103.168,323.496 81.5,306C 82.5707,305.148 83.5707,304.315 84.5,303.5 Z"/></g>
</svg>
