<?xml version="1.0" encoding="UTF-8"?>
<!DOCTYPE svg PUBLIC "-//W3C//DTD SVG 1.1//EN" "http://www.w3.org/Graphics/SVG/1.1/DTD/svg11.dtd">
<svg xmlns="http://www.w3.org/2000/svg" version="1.1" width="1200px" height="194px" style="shape-rendering:geometricPrecision; text-rendering:geometricPrecision; image-rendering:optimizeQuality; fill-rule:evenodd; clip-rule:evenodd" xmlns:xlink="http://www.w3.org/1999/xlink">
<g><path style="opacity:0.918" fill="#e61c29" d="M 171.5,-0.5 C 173.833,-0.5 176.167,-0.5 178.5,-0.5C 182.267,4.63184 182.267,9.96517 178.5,15.5C 183.226,15.013 187.893,13.513 192.5,11C 197.015,7.43043 201.682,4.43043 206.5,2C 196.721,17.1052 183.054,26.7718 165.5,31C 166.5,31.3333 167.5,31.6667 168.5,32C 154.563,50.7717 137.897,66.605 118.5,79.5C 116.732,81.7015 115.565,84.0348 115,86.5C 121.974,78.3495 130.641,73.0162 141,70.5C 143.667,70.1667 145.667,71.1667 147,73.5C 147.738,77.2613 147.405,80.9279 146,84.5C 138,98.5 130,112.5 122,126.5C 120.794,129.847 121.794,132.18 125,133.5C 131.086,132.04 136.586,129.373 141.5,125.5C 147.733,103.512 160.4,86.3458 179.5,74C 184.771,70.7948 190.437,69.4614 196.5,70C 201.741,72.8769 202.907,77.0436 200,82.5C 190.216,99.9506 176.716,113.784 159.5,124C 158.078,130.578 160.744,133.245 167.5,132C 171.675,130.416 175.341,128.082 178.5,125C 182.167,120.667 185.833,116.333 189.5,112C 193.414,111.184 194.247,112.351 192,115.5C 184.79,125.71 175.957,134.21 165.5,141C 153.522,146.19 145.522,142.69 141.5,130.5C 134.082,135.743 126.082,139.909 117.5,143C 106.667,145.5 102.5,141.333 105,130.5C 113.633,114.373 122.466,98.3729 131.5,82.5C 130.833,82.1667 130.167,81.8333 129.5,81.5C 126.893,82.1369 124.56,83.3035 122.5,85C 116.634,90.5313 111.134,96.3647 106,102.5C 97.1046,115.733 88.6046,129.233 80.5,143C 75.319,143.939 70.319,143.606 65.5,142C 82.0433,115.75 98.2099,89.2501 114,62.5C 121.78,51.0528 129.947,39.8861 138.5,29C 123.82,22.4937 108.82,16.827 93.5,12C 73.6175,7.51636 57.1175,13.0164 44,28.5C 39.6658,34.5022 37.9991,41.1688 39,48.5C 40.5293,51.9338 43.196,53.6004 47,53.5C 55.5249,51.9863 62.6915,47.9863 68.5,41.5C 73.2377,36.3595 77.2377,30.6929 80.5,24.5C 80.8333,24.8333 81.1667,25.1667 81.5,25.5C 77.5753,37.1861 71.2419,47.3527 62.5,56C 57.7825,60.0272 52.4492,63.0272 46.5,65C 35.0518,68.2898 28.7184,64.1232 27.5,52.5C 35.4305,23.7388 54.0972,6.57211 83.5,1C 89.8333,0.333333 96.1667,0.333333 102.5,1C 118.827,4.33012 134.327,9.83012 149,17.5C 155.822,10.496 163.322,4.49599 171.5,-0.5 Z M 173.5,4.5 C 174.833,4.5 176.167,4.5 177.5,4.5C 177.522,8.43606 176.522,12.1027 174.5,15.5C 175.025,16.1924 175.692,16.6924 176.5,17C 170.891,18.3841 165.225,18.7175 159.5,18C 163.402,12.5961 168.069,8.09606 173.5,4.5 Z M 125.5,68.5 C 132.898,55.3799 141.064,42.7132 150,30.5C 151.299,31.9797 152.966,32.6464 155,32.5C 158.155,31.7219 161.322,31.5552 164.5,32C 152.888,45.7825 139.888,57.9492 125.5,68.5 Z M 193.5,74.5 C 194.5,74.5 195.5,74.5 196.5,74.5C 195.859,81.7843 193.026,88.1176 188,93.5C 179.892,102.614 170.892,110.614 161,117.5C 166.981,99.5537 177.815,85.2204 193.5,74.5 Z"/></g>
<g><path style="opacity:0.94" fill="#e61c29" d="M 325.5,-0.5 C 328.167,-0.5 330.833,-0.5 333.5,-0.5C 336.34,0.686482 338.506,2.68648 340,5.5C 341.831,13.3324 339.997,20.1657 334.5,26C 327.733,30.2326 324.9,28.3993 326,20.5C 327.908,15.795 331.408,13.4616 336.5,13.5C 337.509,8.49812 335.509,6.16479 330.5,6.5C 323.456,7.68764 317.123,10.521 311.5,15C 291.113,32.9406 274.946,54.1073 263,78.5C 257.479,89.9095 255.146,101.91 256,114.5C 259.683,129.527 269.35,136.86 285,136.5C 290.901,136.155 296.735,135.322 302.5,134C 320.13,129.509 337.796,125.176 355.5,121C 386.681,113.51 413.348,121.177 435.5,144C 430.276,142.07 424.943,140.07 419.5,138C 409.871,134.426 400.204,134.093 390.5,137C 387.344,139.157 384.511,141.657 382,144.5C 373.484,134.076 362.484,129.076 349,129.5C 329.853,131.661 311.019,135.494 292.5,141C 248.04,150.538 229.874,133.038 238,88.5C 250.261,53.2397 272.428,26.0731 304.5,7C 311.302,3.56871 318.302,1.06871 325.5,-0.5 Z"/></g>
<g><path style="opacity:0.921" fill="#e61c29" d="M 545.5,-0.5 C 550.167,-0.5 554.833,-0.5 559.5,-0.5C 560.952,1.10037 562.785,2.10037 565,2.5C 568.644,1.5575 572.144,0.557502 575.5,-0.5C 581.167,-0.5 586.833,-0.5 592.5,-0.5C 604.983,4.10111 616.983,9.93445 628.5,17C 629.701,17.9025 630.535,19.0692 631,20.5C 638.952,11.6904 648.118,4.69037 658.5,-0.5C 661.167,-0.5 663.833,-0.5 666.5,-0.5C 667.851,1.42303 668.518,3.5897 668.5,6C 667.825,10.8524 666.159,15.3524 663.5,19.5C 664,19.8333 664.5,20.1667 665,20.5C 677.237,16.0929 688.07,9.4262 697.5,0.5C 697.833,0.833333 698.167,1.16667 698.5,1.5C 683.57,25.7979 661.903,37.1312 633.5,35.5C 633.649,34.448 633.483,33.448 633,32.5C 623.254,45.6528 614.254,59.3195 606,73.5C 603.053,78.7112 600.72,84.0446 599,89.5C 617.218,73.6152 633.718,56.1152 648.5,37C 649.167,36.8333 649.833,36.6667 650.5,36.5C 651.932,36.7332 652.432,37.3999 652,38.5C 635.077,61.4241 615.41,81.7574 593,99.5C 589.152,108.042 586.319,116.876 584.5,126C 585.347,130.504 587.68,131.504 591.5,129C 593.667,126.833 595.833,124.667 598,122.5C 605.84,110.151 614.174,98.1511 623,86.5C 629.463,78.6762 637.463,73.3429 647,70.5C 650.487,70.7439 653.487,72.0772 656,74.5C 656.956,73.4214 657.789,72.2547 658.5,71C 663.202,70.1717 667.869,70.3384 672.5,71.5C 662.091,89.821 652.091,108.321 642.5,127C 642.509,128.404 643.009,129.57 644,130.5C 653.083,123.419 660.75,115.086 667,105.5C 668.365,106.593 668.699,107.926 668,109.5C 660.597,122.904 650.43,133.737 637.5,142C 628.579,145.279 624.412,142.112 625,132.5C 620.26,138.243 614.26,141.909 607,143.5C 604.3,143.27 601.967,142.27 600,140.5C 598.81,136.619 598.143,132.619 598,128.5C 593.943,134.278 588.777,138.778 582.5,142C 573.507,144.018 568.84,140.351 568.5,131C 569.818,121.895 572.151,113.062 575.5,104.5C 575.167,104.167 574.833,103.833 574.5,103.5C 571.823,104.074 569.157,104.741 566.5,105.5C 560.242,118.258 551.576,129.091 540.5,138C 534.802,142.677 528.468,144.01 521.5,142C 519.951,140.786 518.785,139.286 518,137.5C 519.043,109.432 531.543,87.9316 555.5,73C 561.315,69.9977 567.149,69.8311 573,72.5C 574.22,75.2108 575.053,78.0441 575.5,81C 574.498,87.6708 572.498,94.0041 569.5,100C 572.257,100.584 574.923,100.25 577.5,99C 589.159,74.0003 603.825,51.0003 621.5,30C 608.198,23.0149 594.865,16.0149 581.5,9C 576.58,7.74969 571.58,7.24969 566.5,7.5C 565.765,26.8054 557.765,42.3054 542.5,54C 530.355,60.5288 524.855,57.0288 526,43.5C 532.771,27.4436 543.604,14.9436 558.5,6C 557.57,5.0093 556.404,4.5093 555,4.5C 546.298,6.60096 538.465,10.4343 531.5,16C 507.01,36.1434 488.177,60.6434 475,89.5C 469.684,100.726 468.017,112.392 470,124.5C 473.372,131.433 478.872,133.933 486.5,132C 503.527,122.443 514.694,108.277 520,89.5C 520.667,86.1667 520.667,82.8333 520,79.5C 518.105,76.1416 515.605,75.6416 512.5,78C 505.148,84.1996 500.481,92.0329 498.5,101.5C 492.284,104.108 486.951,107.941 482.5,113C 481.955,94.2126 490.622,80.2126 508.5,71C 519.281,67.8833 524.947,71.8833 525.5,83C 520.713,109.104 506.713,128.438 483.5,141C 461.377,147.703 450.044,139.536 449.5,116.5C 449.405,108.21 450.905,100.21 454,92.5C 468.07,56.4327 491.57,28.2661 524.5,8C 531.331,4.45251 538.331,1.61918 545.5,-0.5 Z M 641.5,23.5 C 646.271,16.8944 651.937,11.0611 658.5,6C 660.345,4.87201 662.345,4.37201 664.5,4.5C 663.408,10.6765 661.742,16.6765 659.5,22.5C 653.365,23.1944 647.365,23.5277 641.5,23.5 Z M 560.5,9.5 C 561.693,9.97041 562.36,10.9704 562.5,12.5C 559.943,29.8035 551.276,42.9702 536.5,52C 532.819,53.3138 530.486,52.1471 529.5,48.5C 532.715,37.5752 538.382,28.0752 546.5,20C 551.056,16.236 555.723,12.736 560.5,9.5 Z M 565.5,75.5 C 569.352,76.5219 571.018,79.0219 570.5,83C 570.084,89.2569 567.918,94.7569 564,99.5C 554.221,95.6112 552.221,89.2779 558,80.5C 560.426,78.5476 562.926,76.881 565.5,75.5 Z M 647.5,77.5 C 649.977,77.0508 651.977,77.7175 653.5,79.5C 646.414,91.3374 639.58,103.337 633,115.5C 629.917,120.588 626.083,125.088 621.5,129C 620.167,129.667 618.833,129.667 617.5,129C 616.398,126.599 616.231,124.099 617,121.5C 623.914,104.446 634.081,89.7794 647.5,77.5 Z M 548.5,93.5 C 552.506,97.8201 557.173,101.487 562.5,104.5C 558.515,112.654 553.182,119.821 546.5,126C 535.8,131.648 532.3,128.481 536,116.5C 539.148,108.198 543.315,100.532 548.5,93.5 Z"/></g>
<g><path style="opacity:0.931" fill="#e61c29" d="M 802.5,3.5 C 810.627,2.88492 815.294,6.55158 816.5,14.5C 815.82,21.665 812.487,27.165 806.5,31C 802.833,32.0732 800.833,30.7399 800.5,27C 801.265,20.3981 804.932,17.2314 811.5,17.5C 812.359,10.2318 809.026,7.73182 801.5,10C 788.592,16.5713 777.092,25.0713 767,35.5C 747.997,55.4961 734.664,78.8294 727,105.5C 723.778,115.445 725.944,123.945 733.5,131C 740.872,133.437 747.539,132.104 753.5,127C 767.012,115.639 775.345,101.305 778.5,84C 778.141,76.4873 774.808,74.8206 768.5,79C 762.676,84.6103 759.009,91.4436 757.5,99.5C 749.714,102.448 743.547,107.448 739,114.5C 739.713,99.9053 745.213,87.4053 755.5,77C 761.502,71.5553 768.502,69.5553 776.5,71C 781.147,73.5752 783.147,77.5752 782.5,83C 778.531,106.609 766.531,124.943 746.5,138C 723.903,148.037 710.903,140.87 707.5,116.5C 710.427,93.2118 718.927,72.2118 733,53.5C 748.242,33.5868 767.076,18.0868 789.5,7C 793.919,5.64763 798.252,4.48096 802.5,3.5 Z"/></g>
<g><path style="opacity:0.926" fill="#e61c29" d="M -0.5,134.5 C -0.5,130.167 -0.5,125.833 -0.5,121.5C 2.64978,114.351 7.98312,109.684 15.5,107.5C 19.8082,107.86 21.3082,110.193 20,114.5C 16.1226,118.172 11.6226,119.339 6.5,118C 2.0954,123.567 1.5954,129.4 5,135.5C 11.1533,139.443 17.3199,139.276 23.5,135C 27,131.5 30.5,128 34,124.5C 45.1705,106.83 55.8372,88.83 66,70.5C 74.3102,55.714 85.4769,43.5473 99.5,34C 106.222,29.5339 113.555,27.5339 121.5,28C 112.809,32.3546 105.643,38.5213 100,46.5C 86.7484,68.0009 73.7484,89.6676 61,111.5C 53.0779,122.757 43.2446,131.923 31.5,139C 23.0806,143.806 14.4139,144.472 5.5,141C 2.68648,139.506 0.686482,137.34 -0.5,134.5 Z"/></g>
<g><path style="opacity:0.882" fill="#e61d2a" d="M 464.5,34.5 C 468.179,34.7244 471.846,35.0578 475.5,35.5C 474.209,39.6459 472.209,43.4792 469.5,47C 465.5,47.6667 461.5,47.6667 457.5,47C 458.065,42.0534 460.398,37.8867 464.5,34.5 Z"/></g>
<g><path style="opacity:0.929" fill="#e61c29" d="M 380.5,34.5 C 391.146,34.9751 394.979,40.3085 392,50.5C 389.992,55.6212 386.492,58.9545 381.5,60.5C 379.145,60.4478 377.812,59.2811 377.5,57C 378.813,50.6852 382.646,47.1852 389,46.5C 388.769,41.8152 386.269,40.3152 381.5,42C 365.819,53.8427 355.485,69.3427 350.5,88.5C 350.983,96.0208 354.65,98.5208 361.5,96C 365.11,94.056 368.443,91.7226 371.5,89C 381.38,77.4556 390.88,65.6222 400,53.5C 406.007,46.1519 413.173,40.3186 421.5,36C 426.678,34.233 431.512,35.0664 436,38.5C 436.374,37.5838 436.874,36.7504 437.5,36C 442.274,34.0096 446.941,34.1762 451.5,36.5C 440.772,54.7897 430.439,73.2897 420.5,92C 421.108,92.8699 421.941,93.3699 423,93.5C 431.368,88.1315 438.035,81.1315 443,72.5C 444.11,70.9632 445.61,70.2965 447.5,70.5C 440.545,86.186 429.545,98.3527 414.5,107C 405.597,108.764 402.097,105.264 404,96.5C 400.117,100.05 395.951,103.217 391.5,106C 382.545,109.86 377.545,107.027 376.5,97.5C 377.189,94.4415 377.689,91.4415 378,88.5C 371.769,94.7287 364.936,100.229 357.5,105C 338.027,109.856 330.86,102.356 336,82.5C 337.697,76.7742 340.197,71.4409 343.5,66.5C 343.167,66.1667 342.833,65.8333 342.5,65.5C 339.944,66.0512 337.611,67.0512 335.5,68.5C 329.077,80.1686 321.077,90.6686 311.5,100C 307.759,102.732 303.759,105.066 299.5,107C 289.992,109.417 284.992,105.75 284.5,96C 288.543,75.2505 298.543,57.9172 314.5,44C 318.569,40.9368 322.902,38.2701 327.5,36C 337.04,32.6648 342.373,35.8314 343.5,45.5C 342.4,51.2678 341.233,56.9344 340,62.5C 343.039,61.3969 345.873,59.8969 348.5,58C 354.198,51.9675 360.198,46.3009 366.5,41C 370.877,37.9748 375.544,35.8081 380.5,34.5 Z M 330.5,41.5 C 336.076,40.2507 338.743,42.4174 338.5,48C 338.287,51.6418 337.453,55.1418 336,58.5C 334.227,62.7565 331.394,63.5899 327.5,61C 322.661,57.8061 321.494,53.6394 324,48.5C 325.694,45.6424 327.861,43.309 330.5,41.5 Z M 427.5,41.5 C 429.167,41.5 430.833,41.5 432.5,41.5C 432.657,42.8734 432.49,44.2068 432,45.5C 425.333,56.8333 418.667,68.1667 412,79.5C 409.095,84.1295 405.595,88.2962 401.5,92C 397.969,94.5414 395.636,93.8747 394.5,90C 395.544,84.8686 397.377,80.0353 400,75.5C 407.226,62.4563 416.393,51.123 427.5,41.5 Z M 317.5,57.5 C 320.613,62.2263 324.947,65.2263 330.5,66.5C 326.356,77.156 319.69,85.9893 310.5,93C 305.859,94.6513 303.193,93.1513 302.5,88.5C 305.11,76.9476 310.11,66.6143 317.5,57.5 Z"/></g>
<g><path style="opacity:0.929" fill="#e61c29" d="M 1199.5,112.5 C 1199.5,113.167 1199.5,113.833 1199.5,114.5C 1192.1,115.69 1185.1,118.19 1178.5,122C 1165.43,129.947 1154.93,140.447 1147,153.5C 1139.96,166.414 1132.79,179.247 1125.5,192C 1120.65,192.934 1115.98,192.601 1111.5,191C 1122.8,170.559 1133.63,150.059 1144,129.5C 1139.4,134.104 1134.23,137.938 1128.5,141C 1121.07,143.611 1117.07,141.111 1116.5,133.5C 1117.61,129.036 1118.77,124.702 1120,120.5C 1113.18,128.312 1105.35,134.812 1096.5,140C 1081.91,145.403 1077.08,140.569 1082,125.5C 1089.92,111.326 1097.59,96.9922 1105,82.5C 1105.44,78.4664 1103.94,77.633 1100.5,80C 1094.38,83.7892 1089.21,88.6225 1085,94.5C 1075.71,110.252 1066.54,126.085 1057.5,142C 1053.18,142.499 1048.85,142.666 1044.5,142.5C 1048.04,134.753 1051.54,127.087 1055,119.5C 1047.04,127.803 1038.2,134.97 1028.5,141C 1018.04,145.2 1013.2,141.7 1014,130.5C 1011.17,133.333 1008.33,136.167 1005.5,139C 1000.22,142.849 994.724,143.349 989,140.5C 987.78,137.789 986.947,134.956 986.5,132C 987.633,126.283 989.133,120.783 991,115.5C 980.543,125.618 968.71,133.784 955.5,140C 949.672,142.227 943.672,142.893 937.5,142C 935.91,140.954 934.41,139.787 933,138.5C 922.821,156.861 912.654,175.194 902.5,193.5C 898.167,193.5 893.833,193.5 889.5,193.5C 889.389,192.883 889.056,192.383 888.5,192C 901.464,168.893 913.964,145.726 926,122.5C 918.967,130.204 910.8,136.37 901.5,141C 888.161,143.923 883.994,138.756 889,125.5C 896.982,111.032 904.816,96.5323 912.5,82C 911.902,80.6988 910.902,79.8655 909.5,79.5C 904.022,82.6647 899.188,86.6647 895,91.5C 884.456,108.084 874.29,124.917 864.5,142C 860.179,142.499 855.846,142.666 851.5,142.5C 859.375,125.728 867.875,109.728 877,94.5C 878.746,90.6733 880.746,87.0066 883,83.5C 883.915,81.08 883.082,79.7466 880.5,79.5C 872.982,83.1788 866.815,88.5121 862,95.5C 852.914,110.67 844.081,126.003 835.5,141.5C 830.88,142.493 826.214,142.827 821.5,142.5C 829.785,125.595 838.285,108.929 847,92.5C 841.014,97.4088 834.18,100.575 826.5,102C 819.332,116.691 809.332,129.024 796.5,139C 784.553,146.021 777.553,142.855 775.5,129.5C 779.479,106.02 791.145,87.5202 810.5,74C 816.256,70.5296 822.256,69.8629 828.5,72C 830.809,74.7149 832.143,77.8815 832.5,81.5C 831.911,86.702 830.578,91.702 828.5,96.5C 843.247,93.6317 853.914,85.1317 860.5,71C 865.202,70.1717 869.869,70.3384 874.5,71.5C 873.087,74.6612 871.42,77.6612 869.5,80.5C 869.833,80.8333 870.167,81.1667 870.5,81.5C 877.766,74.3619 886.432,70.8619 896.5,71C 897.894,72.7395 898.561,74.7395 898.5,77C 898.039,79.1993 897.873,81.3659 898,83.5C 905.338,75.077 914.505,70.9104 925.5,71C 928.097,73.3167 928.93,76.15 928,79.5C 920.525,95.1168 912.525,110.45 904,125.5C 902.836,128.567 903.836,130.233 907,130.5C 910.488,129.673 913.654,128.173 916.5,126C 925.448,118.058 933.281,109.225 940,99.5C 945.413,89.0063 951.079,78.673 957,68.5C 961.84,67.1497 966.673,67.3163 971.5,69C 969.19,72.7801 967.357,76.6135 966,80.5C 972.351,73.5718 980.184,70.4051 989.5,71C 992.028,73.4088 993.361,76.4088 993.5,80C 989.466,98.5743 980.632,114.408 967,127.5C 966.312,128.332 966.479,128.998 967.5,129.5C 979.325,122.185 989.825,113.185 999,102.5C 1005.08,93.7485 1011.91,85.5818 1019.5,78C 1024.19,74.1554 1029.52,71.6554 1035.5,70.5C 1038.49,70.7172 1041.15,71.7172 1043.5,73.5C 1044.29,72.7579 1044.95,71.9246 1045.5,71C 1050.2,70.1717 1054.87,70.3384 1059.5,71.5C 1049.09,90.4776 1039.09,109.644 1029.5,129C 1030.21,130.442 1031.38,131.275 1033,131.5C 1043.47,126.374 1052.13,119.041 1059,109.5C 1067.71,97.2504 1075.55,84.417 1082.5,71C 1087.2,70.1717 1091.87,70.3384 1096.5,71.5C 1095.17,74.1667 1093.83,76.8333 1092.5,79.5C 1092.83,79.8333 1093.17,80.1667 1093.5,80.5C 1099.35,74.6485 1106.35,70.9818 1114.5,69.5C 1122.66,71.5087 1124.5,76.1754 1120,83.5C 1111.93,97.2466 1104.27,111.247 1097,125.5C 1096.39,129.088 1097.89,130.254 1101.5,129C 1113.62,121.881 1123.45,112.381 1131,100.5C 1137.03,90.6297 1142.87,80.6297 1148.5,70.5C 1153.17,69.1667 1157.83,69.1667 1162.5,70.5C 1153,88.1667 1143.5,105.833 1134,123.5C 1133.26,125.441 1133.42,127.274 1134.5,129C 1136.81,128.358 1139.14,127.358 1141.5,126C 1146.03,121.801 1150.2,117.301 1154,112.5C 1162.03,98.6277 1169.87,84.6277 1177.5,70.5C 1182.17,69.1667 1186.83,69.1667 1191.5,70.5C 1180.61,90.8214 1170.11,111.155 1160,131.5C 1170.07,121.462 1182.07,114.795 1196,111.5C 1197.26,111.648 1198.42,111.982 1199.5,112.5 Z M 819.5,76.5 C 825.069,75.9011 828.069,78.4011 828.5,84C 827.547,87.8616 826.38,91.6949 825,95.5C 822.773,97.8792 820.273,98.0459 817.5,96C 810.561,88.7873 811.227,82.2873 819.5,76.5 Z M 1036.5,76.5 C 1038.43,76.2308 1040.1,76.7308 1041.5,78C 1032.84,94.993 1023.17,111.326 1012.5,127C 1005.52,132.795 1002.69,131.295 1004,122.5C 1011.17,104.464 1022,89.1305 1036.5,76.5 Z M 970.5,82.5 C 974.251,82.4177 976.251,84.251 976.5,88C 970.447,107.805 959.447,124.138 943.5,137C 938.502,138.33 936.336,136.496 937,131.5C 943.079,119.674 949.412,108.007 956,96.5C 960.068,90.9297 964.902,86.2631 970.5,82.5 Z M 807.5,91.5 C 809.701,94.0214 812.034,96.5214 814.5,99C 816.833,100 819.167,101 821.5,102C 816.759,112.743 809.759,121.743 800.5,129C 795.016,131.759 792.016,130.092 791.5,124C 794.051,111.733 799.384,100.899 807.5,91.5 Z"/></g>
</svg>
