<?xml version="1.0" encoding="UTF-8"?>
<!DOCTYPE svg PUBLIC "-//W3C//DTD SVG 1.1//EN" "http://www.w3.org/Graphics/SVG/1.1/DTD/svg11.dtd">
<svg xmlns="http://www.w3.org/2000/svg" version="1.1" width="1408px" height="1372px" style="shape-rendering:geometricPrecision; text-rendering:geometricPrecision; image-rendering:optimizeQuality; fill-rule:evenodd; clip-rule:evenodd" xmlns:xlink="http://www.w3.org/1999/xlink">
<g><path style="opacity:1" fill="#fefefe" d="M -0.5,-0.5 C 468.833,-0.5 938.167,-0.5 1407.5,-0.5C 1407.5,456.833 1407.5,914.167 1407.5,1371.5C 938.167,1371.5 468.833,1371.5 -0.5,1371.5C -0.5,914.167 -0.5,456.833 -0.5,-0.5 Z"/></g>
<g><path style="opacity:1" fill="#e20326" d="M 681.5,130.5 C 783.177,125.768 865.343,163.101 928,242.5C 969.489,299.445 986.822,363.112 980,433.5C 959.333,413.5 938.667,393.5 918,373.5C 902.183,292.032 856.016,235.532 779.5,204C 703.018,178.57 632.685,189.904 568.5,238C 506.867,290.191 480.033,356.691 488,437.5C 471.319,454.347 454.486,471.014 437.5,487.5C 410.557,389.29 429.724,301.29 495,223.5C 545.231,168.635 607.398,137.635 681.5,130.5 Z"/></g>
<g><path style="opacity:1" fill="#013f84" d="M 963.5,438.5 C 882.5,439.167 801.5,439.833 720.5,440.5C 691.833,468.5 663.5,496.833 635.5,525.5C 634.5,525.833 633.833,526.5 633.5,527.5C 710.334,528.167 787.334,528.833 864.5,529.5C 864.863,530.183 865.196,530.85 865.5,531.5C 830.668,575.916 785.334,602.249 729.5,610.5C 717.185,611.315 704.852,611.649 692.5,611.5C 619.292,605.493 563.792,571.16 526,508.5C 514.815,488.446 507.315,467.112 503.5,444.5C 503.667,443.5 503.833,442.5 504,441.5C 539.5,406 575,370.5 610.5,335C 611.5,334.333 612.5,334.333 613.5,335C 625.333,346.833 637.167,358.667 649,370.5C 652,367.5 655,364.5 658,361.5C 658.667,360.833 658.667,360.167 658,359.5C 645.986,347.653 634.152,335.653 622.5,323.5C 627.818,317.681 633.318,312.015 639,306.5C 659.5,327 680,347.5 700.5,368C 704.114,366.422 707.281,363.922 710,360.5C 710.667,359.833 710.667,359.167 710,358.5C 690,338.5 670,318.5 650,298.5C 649.333,297.5 649.333,296.5 650,295.5C 656.667,288.833 663.333,282.167 670,275.5C 708.833,314.333 747.667,353.167 786.5,392C 787.167,392.667 787.833,392.667 788.5,392C 793.681,386.652 799.015,381.485 804.5,376.5C 810.843,382.691 817.177,388.525 823.5,394C 826.683,390.985 829.683,387.818 832.5,384.5C 826.636,378.472 820.97,372.305 815.5,366C 819.667,360.5 824.5,355.667 830,351.5C 843.459,363.958 856.626,376.791 869.5,390C 870.167,390.667 870.833,390.667 871.5,390C 874.333,387.167 877.167,384.333 880,381.5C 880.667,380.833 880.667,380.167 880,379.5C 866.791,366.626 853.958,353.459 841.5,340C 844.667,335.5 848.5,331.667 853,328.5C 890.355,364.688 927.188,401.355 963.5,438.5 Z"/></g>
<g><path style="opacity:1" fill="#1d5590" d="M 963.5,438.5 C 964.043,438.56 964.376,438.893 964.5,439.5C 883.169,440.5 801.836,440.833 720.5,440.5C 801.5,439.833 882.5,439.167 963.5,438.5 Z"/></g>
<g><path style="opacity:1" fill="#f8cbd2" d="M 729.5,452.5 C 812.332,451.501 895.332,451.167 978.5,451.5C 978.784,453.415 978.451,455.081 977.5,456.5C 977.5,455.167 977.5,453.833 977.5,452.5C 894.833,452.5 812.167,452.5 729.5,452.5 Z"/></g>
<g><path style="opacity:1" fill="#e20226" d="M 729.5,452.5 C 812.167,452.5 894.833,452.5 977.5,452.5C 977.5,453.833 977.5,455.167 977.5,456.5C 956.567,557.934 898.234,628.434 802.5,668C 759.718,683.571 715.718,688.738 670.5,683.5C 666.081,682.028 661.414,681.362 656.5,681.5C 552.815,660.819 481.482,601.319 442.5,503C 458.681,486.653 475.014,470.486 491.5,454.5C 513.353,537.185 565.02,591.351 646.5,617C 733.968,636.593 808.135,613.76 869,548.5C 877.248,538.33 884.748,527.663 891.5,516.5C 892.043,516.44 892.376,516.107 892.5,515.5C 840.002,514.169 787.668,514.169 735.5,515.5C 711.994,515.831 688.661,515.498 665.5,514.5C 686.529,493.47 707.863,472.803 729.5,452.5 Z"/></g>
<g><path style="opacity:1" fill="#e83652" d="M 735.5,515.5 C 787.668,514.169 840.002,514.169 892.5,515.5C 892.376,516.107 892.043,516.44 891.5,516.5C 859.338,515.502 827.004,515.168 794.5,515.5C 774.833,515.5 755.167,515.5 735.5,515.5 Z"/></g>
<g><path style="opacity:1" fill="#f6b1bd" d="M 665.5,514.5 C 688.661,515.498 711.994,515.831 735.5,515.5C 755.167,515.5 774.833,515.5 794.5,515.5C 751.331,516.831 707.998,516.831 664.5,515.5C 664.624,514.893 664.957,514.56 665.5,514.5 Z"/></g>
<g><path style="opacity:1" fill="#ccd9e6" d="M 635.5,525.5 C 713.334,526.167 791.334,526.833 869.5,527.5C 869.376,528.107 869.043,528.44 868.5,528.5C 790.335,527.501 712.002,527.167 633.5,527.5C 633.833,526.5 634.5,525.833 635.5,525.5 Z"/></g>
<g><path style="opacity:1" fill="#124c8c" d="M 633.5,527.5 C 712.002,527.167 790.335,527.501 868.5,528.5C 867.833,529.833 866.833,530.833 865.5,531.5C 865.196,530.85 864.863,530.183 864.5,529.5C 787.334,528.833 710.334,528.167 633.5,527.5 Z"/></g>
<g><path style="opacity:1" fill="#bdccdf" d="M 729.5,610.5 C 722.568,612.039 715.402,612.706 708,612.5C 702.656,612.499 697.489,612.166 692.5,611.5C 704.852,611.649 717.185,611.315 729.5,610.5 Z"/></g>
<g><path style="opacity:1" fill="#ec5361" d="M 656.5,681.5 C 661.414,681.362 666.081,682.028 670.5,683.5C 665.586,683.638 660.919,682.972 656.5,681.5 Z"/></g>
<g><path style="opacity:1" fill="#1b1b19" d="M 255.5,763.5 C 261.31,764.857 267.31,765.857 273.5,766.5C 281.534,767.8 289.368,769.8 297,772.5C 297.667,775.167 297.667,777.833 297,780.5C 295.51,786.449 294.344,792.449 293.5,798.5C 285.674,797.06 278.007,794.893 270.5,792C 261.811,790.462 253.144,788.795 244.5,787C 218.736,783.135 199.236,792.301 186,814.5C 177.845,828.797 173.012,844.131 171.5,860.5C 170.028,864.919 169.362,869.586 169.5,874.5C 166.497,889.28 166.997,903.947 171,918.5C 176.66,929.4 185.66,934.066 198,932.5C 208.935,932.682 219.268,930.349 229,925.5C 232.169,907.819 235.336,890.152 238.5,872.5C 229.014,871.506 219.348,871.173 209.5,871.5C 209.5,870.167 209.5,868.833 209.5,867.5C 210.966,859.34 212.633,851.34 214.5,843.5C 238.167,843.5 261.833,843.5 285.5,843.5C 285.5,844.833 285.5,846.167 285.5,847.5C 280.879,877.92 275.712,908.253 270,938.5C 269.727,940.329 268.893,941.829 267.5,943C 255.208,949.323 242.208,953.323 228.5,955C 205.44,957.303 182.44,956.97 159.5,954C 140.31,949.811 127.81,938.311 122,919.5C 116.546,878.765 123.213,840.099 142,803.5C 156.253,780.617 176.753,767.117 203.5,763C 220.847,762.288 238.181,762.455 255.5,763.5 Z"/></g>
<g><path style="opacity:1" fill="#40403e" d="M 579.5,763.5 C 545.167,763.5 510.833,763.5 476.5,763.5C 476.737,764.791 476.404,765.791 475.5,766.5C 475.5,765.167 475.5,763.833 475.5,762.5C 510.337,762.168 545.004,762.502 579.5,763.5 Z"/></g>
<g><path style="opacity:1" fill="#1b1b19" d="M 667.5,874.5 C 665.999,881.27 665.333,888.27 665.5,895.5C 665.501,900.346 665.834,905.012 666.5,909.5C 668.009,921.169 674.342,928.669 685.5,932C 699.811,934.121 713.478,932.121 726.5,926C 730.087,908.215 733.421,890.381 736.5,872.5C 727.014,871.506 717.348,871.173 707.5,871.5C 707.5,870.5 707.5,869.5 707.5,868.5C 709.042,860.022 710.708,851.689 712.5,843.5C 736.167,843.5 759.833,843.5 783.5,843.5C 783.5,844.833 783.5,846.167 783.5,847.5C 778.561,876.133 773.728,904.8 769,933.5C 768.81,937.076 767.643,940.242 765.5,943C 753.227,949.319 740.227,953.319 726.5,955C 703.44,957.286 680.44,956.952 657.5,954C 634.131,948.294 620.964,933.461 618,909.5C 615.649,872.92 622.649,838.253 639,805.5C 657.839,774.994 685.339,760.66 721.5,762.5C 746.3,762.189 770.633,765.356 794.5,772C 795.073,781.331 793.74,790.498 790.5,799.5C 766.707,789.505 742.04,785.671 716.5,788C 696.96,795.207 683.794,808.707 677,828.5C 675.135,833.761 673.469,839.095 672,844.5C 669.958,854.419 668.458,864.419 667.5,874.5 Z"/></g>
<g><path style="opacity:1" fill="#3d3d3b" d="M 958.5,764.5 C 914.598,763.17 870.598,763.17 826.5,764.5C 848.323,763.167 870.49,762.5 893,762.5C 915.167,762.833 937.333,763.167 959.5,763.5C 959.376,764.107 959.043,764.44 958.5,764.5 Z"/></g>
<g><path style="opacity:1" fill="#40403e" d="M 977.5,763.5 C 1012.33,762.336 1047.33,762.169 1082.5,763C 1083.74,763.232 1084.74,763.732 1085.5,764.5C 1049.52,763.526 1013.52,763.193 977.5,763.5 Z"/></g>
<g><path style="opacity:1" fill="#3c3c3a" d="M 1137.5,763.5 C 1187.67,762.169 1238,762.169 1288.5,763.5C 1288.38,764.107 1288.04,764.44 1287.5,764.5C 1237.67,763.501 1187.67,763.168 1137.5,763.5 Z"/></g>
<g><path style="opacity:1" fill="#babab9" d="M 255.5,763.5 C 261.845,763.224 267.845,764.224 273.5,766.5C 267.31,765.857 261.31,764.857 255.5,763.5 Z"/></g>
<g><path style="opacity:1" fill="#1b1b19" d="M 454.5,783.5 C 453.596,784.209 453.263,785.209 453.5,786.5C 423.995,786.169 394.662,786.502 365.5,787.5C 361.765,804.905 358.765,822.571 356.5,840.5C 355.596,841.209 355.263,842.209 355.5,843.5C 380.19,842.843 404.523,843.51 428.5,845.5C 426.59,853.781 424.923,862.114 423.5,870.5C 399.174,871.333 374.84,871.833 350.5,872C 346.473,891.018 343.139,910.185 340.5,929.5C 339.566,930.568 339.232,931.901 339.5,933.5C 369.167,933.5 398.833,933.5 428.5,933.5C 426.99,941.091 425.99,948.758 425.5,956.5C 380.833,956.5 336.167,956.5 291.5,956.5C 302.762,891.801 314.095,827.134 325.5,762.5C 369.505,762.167 413.505,762.5 457.5,763.5C 456.174,770.11 455.174,776.777 454.5,783.5 Z"/></g>
<g><path style="opacity:1" fill="#1b1b19" d="M 579.5,763.5 C 590.646,764.701 600.979,768.201 610.5,774C 621.793,784.89 625.626,798.056 622,813.5C 614.428,848.207 592.928,867.04 557.5,870C 557.043,870.414 556.709,870.914 556.5,871.5C 569.514,899.526 582.514,927.526 595.5,955.5C 578.675,956.497 561.675,956.83 544.5,956.5C 533.989,928.461 523.155,900.461 512,872.5C 508.333,871.167 504.667,871.167 501,872.5C 495.561,900.408 490.728,928.408 486.5,956.5C 471.462,957.15 456.795,956.483 442.5,954.5C 453.073,891.73 464.073,829.063 475.5,766.5C 476.404,765.791 476.737,764.791 476.5,763.5C 510.833,763.5 545.167,763.5 579.5,763.5 Z"/></g>
<g><path style="opacity:1" fill="#1a1a18" d="M 958.5,764.5 C 957.208,771.79 956.208,779.123 955.5,786.5C 925.481,785.841 895.815,786.508 866.5,788.5C 863.663,805.519 860.663,822.519 857.5,839.5C 856.566,840.568 856.232,841.901 856.5,843.5C 881.19,842.843 905.523,843.51 929.5,845.5C 928.073,854.152 926.74,862.819 925.5,871.5C 900.833,871.5 876.167,871.5 851.5,871.5C 848.33,891.849 844.997,912.182 841.5,932.5C 870.662,933.498 899.995,933.831 929.5,933.5C 929.5,934.5 929.5,935.5 929.5,936.5C 928.128,943.106 927.128,949.772 926.5,956.5C 882.167,956.5 837.833,956.5 793.5,956.5C 793.5,955.167 793.5,953.833 793.5,952.5C 804.497,889.879 815.497,827.212 826.5,764.5C 870.598,763.17 914.598,763.17 958.5,764.5 Z"/></g>
<g><path style="opacity:1" fill="#1b1b19" d="M 977.5,763.5 C 1013.52,763.193 1049.52,763.526 1085.5,764.5C 1115.3,768.14 1127.8,784.807 1123,814.5C 1115.31,849.692 1093.48,868.025 1057.5,869.5C 1070.25,898.344 1083.59,927.01 1097.5,955.5C 1080.5,956.833 1063.5,956.833 1046.5,955.5C 1035.37,928.239 1024.53,900.906 1014,873.5C 1010,872.167 1006,872.167 1002,873.5C 996.893,901.082 992.393,928.748 988.5,956.5C 973.5,956.5 958.5,956.5 943.5,956.5C 955.254,892.239 966.587,827.905 977.5,763.5 Z"/></g>
<g><path style="opacity:1" fill="#1b1b19" d="M 1137.5,763.5 C 1187.67,763.168 1237.67,763.501 1287.5,764.5C 1286.31,771.803 1285.31,779.137 1284.5,786.5C 1266.5,786.5 1248.5,786.5 1230.5,786.5C 1220.63,843.197 1210.63,899.863 1200.5,956.5C 1186.17,956.5 1171.83,956.5 1157.5,956.5C 1157.5,955.5 1157.5,954.5 1157.5,953.5C 1166.71,898.807 1176.04,844.14 1185.5,789.5C 1186.4,788.791 1186.74,787.791 1186.5,786.5C 1168.83,786.5 1151.17,786.5 1133.5,786.5C 1134.28,778.702 1135.61,771.035 1137.5,763.5 Z"/></g>
<g><path style="opacity:1" fill="#c1c1c1" d="M 454.5,783.5 C 454.5,784.833 454.5,786.167 454.5,787.5C 424.833,787.5 395.167,787.5 365.5,787.5C 394.662,786.502 423.995,786.169 453.5,786.5C 453.263,785.209 453.596,784.209 454.5,783.5 Z"/></g>
<g><path style="opacity:1" fill="#bdbdbd" d="M 560.5,787.5 C 545.833,787.5 531.167,787.5 516.5,787.5C 516.737,788.791 516.404,789.791 515.5,790.5C 515.5,789.167 515.5,787.833 515.5,786.5C 530.676,786.171 545.676,786.504 560.5,787.5 Z"/></g>
<g><path style="opacity:1" fill="#c0c0c0" d="M 955.5,786.5 C 925.931,787.174 896.264,787.841 866.5,788.5C 895.815,786.508 925.481,785.841 955.5,786.5 Z"/></g>
<g><path style="opacity:1" fill="#c0c0c0" d="M 1133.5,786.5 C 1151.17,786.5 1168.83,786.5 1186.5,786.5C 1186.74,787.791 1186.4,788.791 1185.5,789.5C 1168.36,787.838 1151.02,786.838 1133.5,786.5 Z"/></g>
<g><path style="opacity:1" fill="#fcfcfc" d="M 560.5,787.5 C 575.341,790.864 581.841,800.197 580,815.5C 577.654,831.514 568.487,840.348 552.5,842C 537.2,843.337 521.867,843.837 506.5,843.5C 509.058,825.64 512.058,807.973 515.5,790.5C 516.404,789.791 516.737,788.791 516.5,787.5C 531.167,787.5 545.833,787.5 560.5,787.5 Z"/></g>
<g><path style="opacity:1" fill="#fcfcfc" d="M 1054.5,842.5 C 1039.17,842.5 1023.83,842.5 1008.5,842.5C 1008.5,841.5 1008.5,840.5 1008.5,839.5C 1010.98,822.089 1013.98,804.756 1017.5,787.5C 1032.82,786.334 1048.16,786.167 1063.5,787C 1076.33,790.81 1082.5,799.31 1082,812.5C 1080.83,820.865 1078,828.531 1073.5,835.5C 1068.28,840.727 1061.94,843.06 1054.5,842.5 Z"/></g>
<g><path style="opacity:1" fill="#9c9c9a" d="M 214.5,843.5 C 238.328,842.502 262.328,842.169 286.5,842.5C 286.784,844.415 286.451,846.081 285.5,847.5C 285.5,846.167 285.5,844.833 285.5,843.5C 261.833,843.5 238.167,843.5 214.5,843.5 Z"/></g>
<g><path style="opacity:1" fill="#9d9d9b" d="M 356.5,840.5 C 380.477,842.49 404.81,843.157 429.5,842.5C 429.737,843.791 429.404,844.791 428.5,845.5C 404.523,843.51 380.19,842.843 355.5,843.5C 355.263,842.209 355.596,841.209 356.5,840.5 Z"/></g>
<g><path style="opacity:1" fill="#9c9c9a" d="M 712.5,843.5 C 736.328,842.502 760.328,842.169 784.5,842.5C 784.784,844.415 784.451,846.081 783.5,847.5C 783.5,846.167 783.5,844.833 783.5,843.5C 759.833,843.5 736.167,843.5 712.5,843.5 Z"/></g>
<g><path style="opacity:1" fill="#999997" d="M 857.5,839.5 C 857.5,840.5 857.5,841.5 857.5,842.5C 881.833,842.5 906.167,842.5 930.5,842.5C 930.737,843.791 930.404,844.791 929.5,845.5C 905.523,843.51 881.19,842.843 856.5,843.5C 856.232,841.901 856.566,840.568 857.5,839.5 Z"/></g>
<g><path style="opacity:1" fill="#9c9c9a" d="M 1008.5,839.5 C 1008.5,840.5 1008.5,841.5 1008.5,842.5C 1023.83,842.5 1039.17,842.5 1054.5,842.5C 1039.01,843.496 1023.34,843.83 1007.5,843.5C 1007.23,841.901 1007.57,840.568 1008.5,839.5 Z"/></g>
<g><path style="opacity:1" fill="#b3b3b2" d="M 171.5,860.5 C 171.638,865.414 170.972,870.081 169.5,874.5C 169.362,869.586 170.028,864.919 171.5,860.5 Z"/></g>
<g><path style="opacity:1" fill="#c9c9c9" d="M 209.5,867.5 C 209.5,868.833 209.5,870.167 209.5,871.5C 219.348,871.173 229.014,871.506 238.5,872.5C 228.5,872.5 218.5,872.5 208.5,872.5C 208.216,870.585 208.549,868.919 209.5,867.5 Z"/></g>
<g><path style="opacity:1" fill="#c6c6c6" d="M 707.5,868.5 C 707.5,869.5 707.5,870.5 707.5,871.5C 717.348,871.173 727.014,871.506 736.5,872.5C 726.5,872.5 716.5,872.5 706.5,872.5C 706.232,870.901 706.566,869.568 707.5,868.5 Z"/></g>
<g><path style="opacity:1" fill="#b2b2b1" d="M 667.5,874.5 C 666.698,886.148 666.365,897.815 666.5,909.5C 665.834,905.012 665.501,900.346 665.5,895.5C 665.333,888.27 665.999,881.27 667.5,874.5 Z"/></g>
<g><path style="opacity:1" fill="#474745" d="M 340.5,929.5 C 340.5,930.5 340.5,931.5 340.5,932.5C 370.005,932.169 399.338,932.502 428.5,933.5C 398.833,933.5 369.167,933.5 339.5,933.5C 339.232,931.901 339.566,930.568 340.5,929.5 Z"/></g>
<g><path style="opacity:1" fill="#474745" d="M 841.5,932.5 C 871.167,932.5 900.833,932.5 930.5,932.5C 930.768,934.099 930.434,935.432 929.5,936.5C 929.5,935.5 929.5,934.5 929.5,933.5C 899.995,933.831 870.662,933.498 841.5,932.5 Z"/></g>
<g><path style="opacity:1" fill="#a4a4a4" d="M 442.5,954.5 C 456.795,956.483 471.462,957.15 486.5,956.5C 471.676,957.496 456.676,957.829 441.5,957.5C 441.263,956.209 441.596,955.209 442.5,954.5 Z"/></g>
<g><path style="opacity:1" fill="#a4a4a4" d="M 595.5,955.5 C 596.043,955.56 596.376,955.893 596.5,956.5C 579.005,957.827 561.671,957.827 544.5,956.5C 561.675,956.83 578.675,956.497 595.5,955.5 Z"/></g>
<g><path style="opacity:1" fill="#a4a4a4" d="M 793.5,952.5 C 793.5,953.833 793.5,955.167 793.5,956.5C 837.833,956.5 882.167,956.5 926.5,956.5C 882.003,957.499 837.336,957.832 792.5,957.5C 792.216,955.585 792.549,953.919 793.5,952.5 Z"/></g>
<g><path style="opacity:1" fill="#a2a2a2" d="M 1157.5,953.5 C 1157.5,954.5 1157.5,955.5 1157.5,956.5C 1171.83,956.5 1186.17,956.5 1200.5,956.5C 1186.01,957.496 1171.34,957.829 1156.5,957.5C 1156.23,955.901 1156.57,954.568 1157.5,953.5 Z"/></g>
<g><path style="opacity:1" fill="#e20628" d="M 1190.5,1023.5 C 1189.6,1024.21 1189.26,1025.21 1189.5,1026.5C 1198.35,1026.17 1207.02,1026.51 1215.5,1027.5C 1214.09,1037.54 1212.42,1047.54 1210.5,1057.5C 1201.5,1057.5 1192.5,1057.5 1183.5,1057.5C 1178.56,1086.14 1173.73,1114.8 1169,1143.5C 1168.33,1148.83 1168.33,1154.17 1169,1159.5C 1170.17,1163.33 1172.67,1165.83 1176.5,1167C 1184.16,1167.5 1191.83,1167.67 1199.5,1167.5C 1198.17,1178.17 1196.83,1188.83 1195.5,1199.5C 1150.95,1204.78 1131.12,1185.12 1136,1140.5C 1140.92,1112.83 1145.75,1085.17 1150.5,1057.5C 1144.17,1057.5 1137.83,1057.5 1131.5,1057.5C 1132.91,1046.79 1134.58,1036.12 1136.5,1025.5C 1143.17,1025.5 1149.83,1025.5 1156.5,1025.5C 1157.86,1014.71 1159.86,1004.04 1162.5,993.5C 1173.48,992.501 1184.48,992.168 1195.5,992.5C 1193.43,1002.76 1191.76,1013.1 1190.5,1023.5 Z"/></g>
<g><path style="opacity:1" fill="#e20628" d="M 766.5,1084.5 C 756.5,1084.5 746.5,1084.5 736.5,1084.5C 736.5,1083.17 736.5,1081.83 736.5,1080.5C 741.352,1061.86 734.352,1053.7 715.5,1056C 702.198,1060.26 697.031,1069.09 700,1082.5C 701.833,1084.33 703.667,1086.17 705.5,1088C 715.221,1093.53 725.221,1098.53 735.5,1103C 760.876,1118.81 767.042,1140.31 754,1167.5C 743.344,1186.42 727.177,1197.25 705.5,1200C 682.04,1202.88 664.873,1194.04 654,1173.5C 650.609,1162.35 649.775,1151.01 651.5,1139.5C 652.404,1138.79 652.737,1137.79 652.5,1136.5C 663.167,1136.5 673.833,1136.5 684.5,1136.5C 684.5,1137.5 684.5,1138.5 684.5,1139.5C 679.316,1160.47 687.316,1169.64 708.5,1167C 721.341,1163.81 727.174,1155.65 726,1142.5C 724.833,1140.67 723.667,1138.83 722.5,1137C 708.963,1129.07 695.296,1121.4 681.5,1114C 666.562,1101.52 661.396,1085.68 666,1066.5C 677.814,1035.51 700.314,1021.01 733.5,1023C 760.293,1028.06 772.46,1044.23 770,1071.5C 769.604,1076.09 768.438,1080.42 766.5,1084.5 Z"/></g>
<g><path style="opacity:1" fill="#e20728" d="M 841.5,1022.5 C 859.835,1020.77 875.335,1026.44 888,1039.5C 895.29,1049.7 898.29,1061.04 897,1073.5C 892.758,1098.2 888.425,1122.86 884,1147.5C 875.85,1179.99 855.183,1197.66 822,1200.5C 818.097,1200.48 814.264,1199.98 810.5,1199C 807.029,1196.93 803.362,1195.43 799.5,1194.5C 795.555,1214.78 791.888,1235.12 788.5,1255.5C 777.5,1255.5 766.5,1255.5 755.5,1255.5C 765.208,1197.45 775.375,1139.45 786,1081.5C 792.09,1049.92 810.59,1030.25 841.5,1022.5 Z"/></g>
<g><path style="opacity:1" fill="#e20628" d="M 964.5,1022.5 C 983.68,1019.99 999.847,1025.66 1013,1039.5C 1021.08,1050.96 1023.75,1063.63 1021,1077.5C 1016.85,1101.87 1012.52,1126.21 1008,1150.5C 996.203,1187.16 971.036,1203.33 932.5,1199C 907.562,1190.02 896.395,1172.18 899,1145.5C 903.593,1119.09 908.593,1092.76 914,1066.5C 923.314,1043.01 940.148,1028.34 964.5,1022.5 Z"/></g>
<g><path style="opacity:1" fill="#ea4860" d="M 1091.5,1025.5 C 1101.65,1024.51 1111.99,1024.17 1122.5,1024.5C 1122.78,1026.41 1122.45,1028.08 1121.5,1029.5C 1121.5,1028.17 1121.5,1026.83 1121.5,1025.5C 1111.5,1025.5 1101.5,1025.5 1091.5,1025.5 Z"/></g>
<g><path style="opacity:1" fill="#e20928" d="M 1091.5,1025.5 C 1101.5,1025.5 1111.5,1025.5 1121.5,1025.5C 1121.5,1026.83 1121.5,1028.17 1121.5,1029.5C 1120.34,1038.6 1118.67,1047.6 1116.5,1056.5C 1107.52,1057.33 1098.52,1057.83 1089.5,1058C 1081.21,1060.62 1075.04,1065.79 1071,1073.5C 1062.46,1115.72 1054.62,1158.05 1047.5,1200.5C 1036.5,1200.5 1025.5,1200.5 1014.5,1200.5C 1021.12,1160.8 1027.95,1121.14 1035,1081.5C 1041.14,1049.86 1059.98,1031.19 1091.5,1025.5 Z"/></g>
<g><path style="opacity:1" fill="#ea435d" d="M 1190.5,1023.5 C 1198.79,1025.15 1207.46,1026.15 1216.5,1026.5C 1216.38,1027.11 1216.04,1027.44 1215.5,1027.5C 1207.02,1026.51 1198.35,1026.17 1189.5,1026.5C 1189.26,1025.21 1189.6,1024.21 1190.5,1023.5 Z"/></g>
<g><path style="opacity:1" fill="#fefcfc" d="M 963.5,1055.5 C 968.844,1055.33 974.177,1055.5 979.5,1056C 987.088,1060.35 989.921,1066.85 988,1075.5C 983.872,1098.47 979.872,1121.47 976,1144.5C 971.091,1161.37 959.924,1168.87 942.5,1167C 934.915,1163.67 931.582,1157.84 932.5,1149.5C 935.817,1128.49 939.317,1107.49 943,1086.5C 944.394,1072.33 951.227,1062 963.5,1055.5 Z"/></g>
<g><path style="opacity:1" fill="#fefcfc" d="M 841.5,1055.5 C 861.427,1054.95 868.26,1064.29 862,1083.5C 858.204,1104.14 854.538,1124.81 851,1145.5C 846.229,1161.8 835.396,1168.97 818.5,1167C 810.327,1163.9 806.994,1157.9 808.5,1149C 812.114,1125.48 815.947,1101.98 820,1078.5C 822.981,1066.69 830.148,1059.03 841.5,1055.5 Z"/></g>
<g><path style="opacity:1" fill="#ef7388" d="M 736.5,1080.5 C 736.5,1081.83 736.5,1083.17 736.5,1084.5C 746.5,1084.5 756.5,1084.5 766.5,1084.5C 756.347,1085.49 746.014,1085.83 735.5,1085.5C 735.216,1083.59 735.549,1081.92 736.5,1080.5 Z"/></g>
<g><path style="opacity:1" fill="#ec5a71" d="M 684.5,1139.5 C 684.5,1138.5 684.5,1137.5 684.5,1136.5C 673.833,1136.5 663.167,1136.5 652.5,1136.5C 652.737,1137.79 652.404,1138.79 651.5,1139.5C 651.5,1138.17 651.5,1136.83 651.5,1135.5C 662.833,1135.5 674.167,1135.5 685.5,1135.5C 685.768,1137.1 685.434,1138.43 684.5,1139.5 Z"/></g>
</svg>
