<svg xmlns="http://www.w3.org/2000/svg" xml:space="preserve" width="450" height="337" style="shape-rendering:geometricPrecision;text-rendering:geometricPrecision;image-rendering:optimizeQuality;fill-rule:evenodd;clip-rule:evenodd" viewBox="0 0 131.69 98.75"><defs><style>.fil0{fill:#0870b9}.fil2{fill:#a47d1e}.fil1{fill:#0870b9;fill-rule:nonzero}</style></defs><g id="svg115845"><g id="_2740291169440"><path class="fil0" d="M44.76 53.26h.79v-1.5h1.34v1.5h.79v-3.48h-.79v1.33h-1.34v-1.33h-.79zM51.7 51.52c.01-.32-.06-.63-.2-.92a1.65 1.65 0 0 0-.56-.64c-.27-.16-.57-.24-.88-.24-.32-.01-.62.07-.89.24-.24.15-.44.38-.56.64-.13.29-.2.61-.2.92a2 2 0 0 0 .2.93c.12.26.32.48.56.64.27.16.57.24.89.24.31 0 .61-.08.88-.24.24-.16.44-.38.56-.64a2 2 0 0 0 .2-.93zm-2.5 0c-.01-.29.07-.59.24-.83a.78.78 0 0 1 1.09-.15c.05.04.1.09.14.15.17.24.25.54.24.83.01.3-.07.59-.24.84a.78.78 0 0 1-1.09.15c-.05-.05-.1-.09-.14-.15-.17-.25-.25-.54-.24-.84zM53.18 53.26h.79v-2.83h1v-.65h-2.8v.65h1.01zM55.79 53.26h2.38v-.62h-1.59v-.84h1.36v-.64h-1.36v-.74h1.54v-.64h-2.33zM59.1 53.26h2.33v-.65h-1.55v-2.83h-.78zM64.39 53.26h1.38c.36.03.72-.07 1.01-.28.21-.18.33-.45.32-.73a.85.85 0 0 0-.18-.53.886.886 0 0 0-.49-.29.65.65 0 0 0 .37-.26c.08-.13.12-.28.12-.43.01-.27-.1-.52-.3-.69-.27-.19-.6-.29-.93-.27h-1.3v3.48zm1.91-1.05c.01.13-.04.26-.14.34-.14.08-.3.12-.46.11h-.53v-.9h.53c.16 0 .32.04.46.12.1.08.15.21.14.33zm-.13-1.43c0 .11-.05.23-.14.3a.64.64 0 0 1-.4.11h-.47v-.81h.47c.14-.01.28.03.4.1.1.07.15.18.14.3z"/><path class="fil1" d="M67.91 49.78h.79v3.48h-.79z"/><path class="fil0" d="M70.91 52.69c-.16 0-.33-.04-.47-.12-.15-.07-.28-.16-.38-.28l-.57.41c.18.2.4.36.64.47.26.11.54.16.82.16.34.01.67-.09.95-.29.22-.18.35-.46.35-.75a.927.927 0 0 0-.27-.69c-.25-.2-.54-.33-.85-.4a1.75 1.75 0 0 1-.54-.24.393.393 0 0 1-.15-.28c0-.09.04-.17.12-.23.1-.06.22-.1.34-.09.13 0 .26.03.37.09.12.06.22.14.31.23l.53-.39a1.69 1.69 0 0 0-.57-.42c-.22-.1-.46-.15-.71-.14-.32-.02-.63.08-.88.27-.2.18-.32.44-.31.71 0 .24.09.47.25.65.22.2.5.35.8.42.16.05.33.11.48.18.09.04.17.09.22.17.04.06.05.13.05.2 0 .1-.05.2-.14.26-.11.07-.25.11-.39.1zM73.06 53.26h.79v-1.5h1.34v1.5h.79v-3.48h-.79v1.33h-1.34v-1.33h-.79zM77.75 49.78h-.79v3.48h.79v-.85l.44-.57.82 1.42h.9l-1.25-2.04 1.09-1.44h-.87l-1.13 1.58zM80.57 53.26h2.38v-.62h-1.59v-.84h1.36v-.64h-1.36v-.74h1.54v-.64h-2.33zM84.55 49.78h-.79v3.48h.79v-.85l.43-.57.82 1.42h.9l-1.25-2.04 1.1-1.44h-.88l-1.12 1.58zM25.04 34.81c0-3.58 2.68-6.48 5.99-6.48s5.98 2.9 5.98 6.48c0 3.58-2.68 6.48-5.98 6.48-3.3 0-5.99-2.9-5.99-6.48zm-3.93 0c.15-5.48 4.71-9.8 10.19-9.65 5.48.15 9.8 4.71 9.65 10.19C40.8 40.72 36.4 45 31.03 45c-5.55-.08-9.99-4.64-9.92-10.19z"/><path class="fil1" d="M63.75 24.91h3.96v19.4h-3.96z"/><path class="fil0" d="M75.24 34.81c0-3.58 2.68-6.48 5.99-6.48 3.3 0 5.98 2.9 5.98 6.48 0 3.58-2.68 6.48-5.98 6.48-3.31 0-5.99-2.9-5.99-6.48zm-3.94 0c.15-5.48 4.71-9.8 10.19-9.65 5.48.15 9.8 4.71 9.65 10.19-.15 5.37-4.54 9.65-9.92 9.65-5.55-.08-9.99-4.64-9.92-10.19z"/><path class="fil1" d="M107.56 24.91h3.97v19.4h-3.85l-8.61-12.44v12.44h-3.96v-19.4h3.68l8.77 12.67zM48.47 28.4v7.16h3.9a3.584 3.584 0 0 0-.1-7.16h-3.8zm-3.96-3.49h8.16c.26.02.52.06.77.12 3.83.63 6.42 4.26 5.79 8.09a7.037 7.037 0 0 1-3.34 4.89l3.85 6.27h-4.47l-3.45-5.62h-3.35v5.64h-3.96V24.91z"/><path class="fil2" d="m65.73 8.23.86 1.89 2.07.24-1.54 1.4.42 2.04-1.81-1.02-1.81 1.02.41-2.04-1.53-1.4 2.07-.24zM74.09 8.53l.73 1.95 2.04.38-1.63 1.29.28 2.06-1.74-1.15-1.88.9.56-2.01-1.43-1.5 2.07-.09zM82.75 9.39l.59 1.99 2.01.52-1.71 1.18.12 2.08-1.65-1.27-1.93.76.69-1.96-1.32-1.6 2.08.05zM57.2 8.53l-.73 1.95-2.05.38 1.63 1.29-.27 2.06 1.73-1.15 1.88.9-.55-2.01 1.42-1.5-2.07-.09zM48.54 9.39l-.6 1.99-2.01.52 1.72 1.18-.13 2.08 1.64-1.27 1.95.76-.7-1.96 1.32-1.6-2.08.05z"/><path class="fil0" d="M1.35 34.84c0 16.88 28.83 30.57 64.39 30.57 35.57 0 64.4-13.69 64.4-30.57 0-16.87-28.83-30.56-64.4-30.56-35.56 0-64.39 13.68-64.39 30.56zM65.71 0h.05c36.3.01 65.71 15.63 65.71 34.9 0 19.27-29.43 34.89-65.74 34.89C29.42 69.79 0 54.17 0 34.9 0 15.63 29.41.01 65.71 0z"/><path d="M.52 91.53h2.79c.55 0 .96.02 1.23.07.28.05.52.15.73.29.22.15.39.35.54.59.14.25.21.53.21.83 0 .33-.09.64-.26.91-.18.28-.42.49-.72.62.43.13.75.35.98.65.23.3.34.66.34 1.07 0 .32-.07.64-.22.94-.15.31-.35.55-.6.73-.26.19-.57.3-.95.34-.23.03-.8.04-1.7.05H.52v-7.09zm1.41 1.18v1.63h.92c.55 0 .89-.01 1.02-.02.24-.03.43-.11.57-.25.14-.15.21-.33.21-.56 0-.22-.06-.39-.18-.53s-.3-.22-.53-.25c-.14-.01-.54-.02-1.2-.02h-.81zm0 2.81v1.9h1.31c.5 0 .83-.01.96-.04.21-.04.38-.14.51-.29.13-.15.2-.35.2-.6a.95.95 0 0 0-.15-.54.876.876 0 0 0-.44-.33c-.19-.07-.61-.1-1.25-.1H1.93zm8.19 3.1v-7.09h5.16v1.2h-3.75v1.57h3.49v1.2h-3.49v1.92h3.88v1.2h-5.29zm10.89 0v-2.98l-2.55-4.11h1.65l1.64 2.81 1.61-2.81h1.62l-2.56 4.12v2.97h-1.41zm6.94-3.5c0-.73.11-1.33.32-1.82.16-.37.37-.69.65-.98.27-.28.57-.5.9-.64.43-.18.93-.28 1.5-.28 1.03 0 1.85.33 2.47.98.62.65.92 1.55.92 2.7 0 1.15-.3 2.05-.91 2.7-.62.64-1.43.97-2.46.97s-1.86-.32-2.47-.97c-.61-.64-.92-1.53-.92-2.66zm1.45-.05c0 .8.18 1.41.55 1.83.36.41.83.62 1.39.62.56 0 1.02-.21 1.38-.62.36-.41.54-1.03.54-1.85 0-.81-.17-1.42-.52-1.82-.35-.4-.82-.6-1.4-.6s-1.05.2-1.41.61c-.35.4-.53 1.01-.53 1.83zm8.98 3.55v-7.09h1.37l2.87 4.75v-4.75h1.3v7.09h-1.41l-2.82-4.66v4.66h-1.31zm9.6-7.09h2.57c.58 0 1.02.05 1.32.14.41.12.76.34 1.05.65.29.31.51.69.66 1.15.15.45.23 1.01.23 1.67 0 .59-.07 1.09-.21 1.51-.18.52-.43.93-.75 1.25-.24.25-.57.43-.98.57-.31.1-.73.15-1.25.15h-2.64v-7.09zm1.41 1.2v4.69h1.05c.39 0 .67-.02.84-.07.23-.05.42-.15.57-.29.15-.14.27-.37.37-.69.09-.31.14-.75.14-1.29 0-.55-.05-.97-.14-1.26-.1-.3-.23-.53-.4-.69a1.3 1.3 0 0 0-.65-.33c-.19-.05-.58-.07-1.15-.07h-.63zm13.17 2.39c0-.73.11-1.33.32-1.82.16-.37.37-.69.65-.98.27-.28.57-.5.9-.64.43-.18.93-.28 1.5-.28 1.03 0 1.85.33 2.47.98.62.65.92 1.55.92 2.7 0 1.15-.3 2.05-.91 2.7-.62.64-1.43.97-2.46.97-1.04 0-1.86-.32-2.47-.97-.61-.64-.92-1.53-.92-2.66zm1.45-.05c0 .8.18 1.41.55 1.83.36.41.83.62 1.39.62.56 0 1.02-.21 1.38-.62.36-.41.54-1.03.54-1.85 0-.81-.17-1.42-.52-1.82-.35-.4-.82-.6-1.4-.6s-1.05.2-1.41.61c-.35.4-.53 1.01-.53 1.83zm8.98 3.55v-7.09h2.97c.74 0 1.28.07 1.62.19.34.13.61.36.81.68.2.33.3.7.3 1.12 0 .53-.15.97-.45 1.32-.31.34-.77.56-1.38.65.31.18.56.38.75.59.2.22.47.6.8 1.16l.85 1.38h-1.68l-1.01-1.55c-.36-.55-.61-.89-.75-1.04a1.03 1.03 0 0 0-.42-.29c-.15-.05-.39-.08-.71-.08h-.29v2.96h-1.41zm1.41-4.09h1.04c.68 0 1.1-.03 1.27-.09.16-.05.3-.16.39-.3.1-.14.14-.32.14-.53 0-.24-.06-.43-.18-.58a.885.885 0 0 0-.53-.28c-.12-.01-.46-.02-1.03-.02h-1.1v1.8zm8.19-3h2.57c.58 0 1.02.05 1.32.14.41.12.76.34 1.05.65.29.31.51.69.66 1.15.15.45.23 1.01.23 1.67 0 .59-.07 1.09-.21 1.51-.18.52-.43.93-.75 1.25-.24.25-.57.43-.99.57-.31.1-.72.15-1.24.15h-2.64v-7.09zm1.41 1.2v4.69h1.05c.39 0 .67-.02.84-.07.23-.05.42-.15.57-.29.15-.14.27-.37.37-.69.09-.31.14-.75.14-1.29 0-.55-.05-.97-.14-1.26-.1-.3-.23-.53-.4-.69a1.3 1.3 0 0 0-.65-.33c-.19-.05-.58-.07-1.15-.07H84zm8.14 5.89v-7.09h1.41v7.09h-1.41zm5.32 0v-7.09h1.37l2.86 4.75v-4.75H103v7.09h-1.41l-2.83-4.66v4.66h-1.3zm15.88 0h-1.52l-.61-1.61h-2.79l-.58 1.61h-1.49l2.7-7.09h1.49l2.8 7.09zm-2.58-2.81-.97-2.63-.94 2.63h1.91zm5.9 2.81v-7.09h2.96c.75 0 1.29.07 1.62.19.34.13.61.36.82.68.2.33.3.7.3 1.12 0 .53-.15.97-.46 1.32-.3.34-.76.56-1.37.65.3.18.55.38.75.59.2.22.46.6.8 1.16l.85 1.38h-1.69l-1.01-1.55c-.36-.55-.61-.89-.74-1.04a1.03 1.03 0 0 0-.42-.29c-.15-.05-.39-.08-.72-.08h-.28v2.96h-1.41zm1.41-4.09h1.04c.67 0 1.09-.03 1.26-.09.17-.05.3-.16.4-.3.09-.14.14-.32.14-.53 0-.24-.06-.43-.19-.58-.12-.15-.3-.24-.53-.28-.11-.01-.45-.02-1.02-.02h-1.1v1.8zm9.65 4.09v-2.98l-2.55-4.11h1.65l1.65 2.81 1.6-2.81h1.62l-2.56 4.12v2.97h-1.41z" style="fill:#a47d1e;fill-rule:nonzero"/></g></g></svg>