<?xml version="1.0" encoding="UTF-8"?>
<!DOCTYPE svg PUBLIC "-//W3C//DTD SVG 1.1//EN" "http://www.w3.org/Graphics/SVG/1.1/DTD/svg11.dtd">
<svg xmlns="http://www.w3.org/2000/svg" version="1.1" width="600px" height="67px" style="shape-rendering:geometricPrecision; text-rendering:geometricPrecision; image-rendering:optimizeQuality; fill-rule:evenodd; clip-rule:evenodd" xmlns:xlink="http://www.w3.org/1999/xlink">
<g><path style="opacity:1" fill="#fefefe" d="M -0.5,-0.5 C 45.8333,-0.5 92.1667,-0.5 138.5,-0.5C 129.314,5.01615 120.147,10.6828 111,16.5C 110.333,27.5 110.333,38.5 111,49.5C 120.147,55.3172 129.314,60.9838 138.5,66.5C 92.1667,66.5 45.8333,66.5 -0.5,66.5C -0.5,44.1667 -0.5,21.8333 -0.5,-0.5 Z"/></g>
<g><path style="opacity:1" fill="#fafafb" d="M 141.5,-0.5 C 150.167,-0.5 158.833,-0.5 167.5,-0.5C 165.572,1.47406 163.239,2.97406 160.5,4C 164.916,6.95836 169.416,9.7917 174,12.5C 174.667,26.1667 174.667,39.8333 174,53.5C 169.416,56.2083 164.916,59.0416 160.5,62C 163.239,63.0259 165.572,64.5259 167.5,66.5C 158.833,66.5 150.167,66.5 141.5,66.5C 150.686,60.9838 159.853,55.3172 169,49.5C 169.667,38.5 169.667,27.5 169,16.5C 159.853,10.6828 150.686,5.01615 141.5,-0.5 Z"/></g>
<g><path style="opacity:1" fill="#2fc84d" d="M 167.5,-0.5 C 168.833,-0.5 170.167,-0.5 171.5,-0.5C 180.187,4.93326 189.02,10.2666 198,15.5C 198.667,27.1667 198.667,38.8333 198,50.5C 189.02,55.7334 180.187,61.0667 171.5,66.5C 170.167,66.5 168.833,66.5 167.5,66.5C 165.572,64.5259 163.239,63.0259 160.5,62C 164.916,59.0416 169.416,56.2083 174,53.5C 174.667,39.8333 174.667,26.1667 174,12.5C 169.416,9.7917 164.916,6.95836 160.5,4C 163.239,2.97406 165.572,1.47406 167.5,-0.5 Z"/></g>
<g><path style="opacity:1" fill="#f8fcf9" d="M 171.5,-0.5 C 180.167,-0.5 188.833,-0.5 197.5,-0.5C 195.231,0.97576 192.898,2.47576 190.5,4C 195,7.16667 199.5,10.3333 204,13.5C 204.667,26.5 204.667,39.5 204,52.5C 199.8,56.0232 195.3,59.1899 190.5,62C 192.898,63.5242 195.231,65.0242 197.5,66.5C 188.833,66.5 180.167,66.5 171.5,66.5C 180.187,61.0667 189.02,55.7334 198,50.5C 198.667,38.8333 198.667,27.1667 198,15.5C 189.02,10.2666 180.187,4.93326 171.5,-0.5 Z"/></g>
<g><path style="opacity:1" fill="#c5cfda" d="M 197.5,-0.5 C 198.5,-0.5 199.5,-0.5 200.5,-0.5C 209.686,5.01615 218.853,10.6828 228,16.5C 228.667,27.5 228.667,38.5 228,49.5C 218.853,55.3172 209.686,60.9838 200.5,66.5C 199.5,66.5 198.5,66.5 197.5,66.5C 195.231,65.0242 192.898,63.5242 190.5,62C 195.3,59.1899 199.8,56.0232 204,52.5C 204.667,39.5 204.667,26.5 204,13.5C 199.5,10.3333 195,7.16667 190.5,4C 192.898,2.47576 195.231,0.97576 197.5,-0.5 Z"/></g>
<g><path style="opacity:1" fill="#fdfcfd" d="M 200.5,-0.5 C 333.5,-0.5 466.5,-0.5 599.5,-0.5C 599.5,21.8333 599.5,44.1667 599.5,66.5C 466.5,66.5 333.5,66.5 200.5,66.5C 209.686,60.9838 218.853,55.3172 228,49.5C 228.667,38.5 228.667,27.5 228,16.5C 218.853,10.6828 209.686,5.01615 200.5,-0.5 Z"/></g>
<g><path style="opacity:1" fill="#4b12a0" d="M 138.5,-0.5 C 139.5,-0.5 140.5,-0.5 141.5,-0.5C 150.686,5.01615 159.853,10.6828 169,16.5C 169.667,27.5 169.667,38.5 169,49.5C 159.853,55.3172 150.686,60.9838 141.5,66.5C 140.5,66.5 139.5,66.5 138.5,66.5C 129.314,60.9838 120.147,55.3172 111,49.5C 110.333,38.5 110.333,27.5 111,16.5C 120.147,10.6828 129.314,5.01615 138.5,-0.5 Z"/></g>
<g><path style="opacity:1" fill="#4a10a0" d="M 258.5,56.5 C 255.167,56.5 251.833,56.5 248.5,56.5C 248.5,41.5 248.5,26.5 248.5,11.5C 248.611,10.8826 248.944,10.3826 249.5,10C 254.087,9.20095 258.587,9.36761 263,10.5C 268.333,21.8333 273.667,33.1667 279,44.5C 284.333,33.1667 289.667,21.8333 295,10.5C 299.413,9.36761 303.913,9.20095 308.5,10C 309.491,25.4221 309.824,40.9221 309.5,56.5C 306.167,56.5 302.833,56.5 299.5,56.5C 299.667,45.8281 299.5,35.1615 299,24.5C 294,34.8333 289,45.1667 284,55.5C 280.108,57.0668 276.442,56.7334 273,54.5C 268.333,44.5 263.667,34.5 259,24.5C 258.5,35.1615 258.333,45.8281 258.5,56.5 Z"/></g>
<g><path style="opacity:1" fill="#480e9f" d="M 331.5,18.5 C 330.521,21.6248 330.187,24.9581 330.5,28.5C 339.833,28.5 349.167,28.5 358.5,28.5C 358.5,31.5 358.5,34.5 358.5,37.5C 349.167,37.5 339.833,37.5 330.5,37.5C 330.5,40.8333 330.5,44.1667 330.5,47.5C 342.167,47.5 353.833,47.5 365.5,47.5C 365.5,50.5 365.5,53.5 365.5,56.5C 350.588,56.824 335.755,56.4906 321,55.5C 320.333,40.5 320.333,25.5 321,10.5C 335.759,9.34333 350.592,9.17666 365.5,10C 364.167,12.6667 362.833,15.3333 361.5,18C 351.506,18.4998 341.506,18.6665 331.5,18.5 Z"/></g>
<g><path style="opacity:1" fill="#4a11a0" d="M 374.5,9.5 C 390.17,9.33341 405.837,9.50008 421.5,10C 420.167,12.6667 418.833,15.3333 417.5,18C 406.505,18.4998 395.505,18.6665 384.5,18.5C 384.5,28.1667 384.5,37.8333 384.5,47.5C 393.5,47.5 402.5,47.5 411.5,47.5C 411.5,44.1667 411.5,40.8333 411.5,37.5C 405.463,37.8293 399.463,37.4959 393.5,36.5C 394.706,33.9206 396.039,31.4206 397.5,29C 405.493,28.5003 413.493,28.3336 421.5,28.5C 421.818,37.7506 421.485,46.9172 420.5,56C 405.156,56.8329 389.822,56.6662 374.5,55.5C 373.182,40.1668 373.182,24.8334 374.5,9.5 Z"/></g>
<g><path style="opacity:1" fill="#4d15a1" d="M 450.5,9.5 C 455.511,9.33407 460.511,9.50074 465.5,10C 473.49,24.8149 480.824,39.9816 487.5,55.5C 484.216,56.657 480.882,56.8236 477.5,56C 476.438,53.2095 475.105,50.5428 473.5,48C 463.167,47.3333 452.833,47.3333 442.5,48C 441.039,50.4206 439.706,52.9206 438.5,55.5C 435.167,56.8333 431.833,56.8333 428.5,55.5C 435.318,39.8663 442.651,24.533 450.5,9.5 Z"/></g>
<g><path style="opacity:1" fill="#9983c6" d="M 248.5,11.5 C 248.5,26.5 248.5,41.5 248.5,56.5C 251.833,56.5 255.167,56.5 258.5,56.5C 255.038,57.4816 251.371,57.815 247.5,57.5C 247.17,41.9909 247.504,26.6576 248.5,11.5 Z"/></g>
<g><path style="opacity:1" fill="#faf9fc" d="M 455.5,18.5 C 457.167,18.5 458.833,18.5 460.5,18.5C 462.599,24.7033 465.266,30.7033 468.5,36.5C 461.5,37.8333 454.5,37.8333 447.5,36.5C 450.734,30.7033 453.401,24.7033 455.5,18.5 Z"/></g>
<g><path style="opacity:1" fill="#d8cfe8" d="M 331.5,18.5 C 331.5,21.5 331.5,24.5 331.5,27.5C 340.682,27.1734 349.682,27.5067 358.5,28.5C 349.167,28.5 339.833,28.5 330.5,28.5C 330.187,24.9581 330.521,21.6248 331.5,18.5 Z"/></g>
<g><path style="opacity:1" fill="#e2dbee" d="M 358.5,37.5 C 349.682,38.4933 340.682,38.8266 331.5,38.5C 331.5,41.1667 331.5,43.8333 331.5,46.5C 343.167,46.5 354.833,46.5 366.5,46.5C 366.813,50.0419 366.479,53.3752 365.5,56.5C 365.5,53.5 365.5,50.5 365.5,47.5C 353.833,47.5 342.167,47.5 330.5,47.5C 330.5,44.1667 330.5,40.8333 330.5,37.5C 339.833,37.5 349.167,37.5 358.5,37.5 Z"/></g>
</svg>
