<?xml version="1.0" encoding="UTF-8"?>
<!DOCTYPE svg PUBLIC "-//W3C//DTD SVG 1.1//EN" "http://www.w3.org/Graphics/SVG/1.1/DTD/svg11.dtd">
<svg xmlns="http://www.w3.org/2000/svg" version="1.1" width="250px" height="127px" style="shape-rendering:geometricPrecision; text-rendering:geometricPrecision; image-rendering:optimizeQuality; fill-rule:evenodd; clip-rule:evenodd" xmlns:xlink="http://www.w3.org/1999/xlink">
<g><path style="opacity:1" fill="#f7f7f7" d="M -0.5,-0.5 C 82.8333,-0.5 166.167,-0.5 249.5,-0.5C 249.5,41.8333 249.5,84.1667 249.5,126.5C 166.167,126.5 82.8333,126.5 -0.5,126.5C -0.5,84.1667 -0.5,41.8333 -0.5,-0.5 Z"/></g>
<g><path style="opacity:1" fill="#fefefe" d="M 84.5,1.5 C 111.835,1.33336 139.169,1.50002 166.5,2C 178.22,5.05347 185.054,12.5535 187,24.5C 187.667,50.5 187.667,76.5 187,102.5C 184.087,115.078 176.254,122.578 163.5,125C 138.167,125.667 112.833,125.667 87.5,125C 71.776,122.077 63.6093,112.577 63,96.5C 62.3333,74.1667 62.3333,51.8333 63,29.5C 63.6716,15.0142 70.8383,5.68082 84.5,1.5 Z"/></g>
<g><path style="opacity:1" fill="#ef0b7e" d="M 92.5,33.5 C 114.167,33.5 135.833,33.5 157.5,33.5C 157.5,53.5 157.5,73.5 157.5,93.5C 144.163,93.6666 130.829,93.4999 117.5,93C 119.007,92.1627 119.507,90.9961 119,89.5C 113.963,94.3687 109.13,99.3687 104.5,104.5C 103.833,100.833 103.167,97.1667 102.5,93.5C 99.1667,93.5 95.8333,93.5 92.5,93.5C 92.5,73.5 92.5,53.5 92.5,33.5 Z"/></g>
<g><path style="opacity:1" fill="#f12e91" d="M 92.5,33.5 C 114.327,32.5026 136.327,32.1693 158.5,32.5C 158.83,53.0069 158.497,73.3402 157.5,93.5C 157.5,73.5 157.5,53.5 157.5,33.5C 135.833,33.5 114.167,33.5 92.5,33.5 Z"/></g>
<g><path style="opacity:1" fill="#fefafc" d="M 115.5,45.5 C 132.738,45.3108 139.571,53.6441 136,70.5C 131.243,79.7876 123.743,82.9543 113.5,80C 103.909,74.827 100.742,66.9937 104,56.5C 106.437,51.2262 110.271,47.5595 115.5,45.5 Z"/></g>
<g><path style="opacity:1" fill="#fefefe" d="M 142.5,46.5 C 144.167,46.5 145.833,46.5 147.5,46.5C 147.5,50.5 147.5,54.5 147.5,58.5C 147.5,62.5 147.5,66.5 147.5,70.5C 145.833,70.5 144.167,70.5 142.5,70.5C 142.5,62.5 142.5,54.5 142.5,46.5 Z"/></g>
<g><path style="opacity:1" fill="#fbc8e2" d="M 142.5,46.5 C 144.265,45.5386 146.265,45.2053 148.5,45.5C 148.818,50.0323 148.485,54.3656 147.5,58.5C 147.5,54.5 147.5,50.5 147.5,46.5C 145.833,46.5 144.167,46.5 142.5,46.5 Z"/></g>
<g><path style="opacity:1" fill="#f01280" d="M 117.5,51.5 C 130.143,53.1133 133.643,59.78 128,71.5C 123.45,75.0871 118.616,75.4204 113.5,72.5C 109.775,68.541 108.608,63.8743 110,58.5C 111.742,55.2543 114.242,52.921 117.5,51.5 Z"/></g>
<g><path style="opacity:1" fill="#fef1f8" d="M 142.5,74.5 C 144.5,74.5 146.5,74.5 148.5,74.5C 148.5,76.5 148.5,78.5 148.5,80.5C 146.5,80.5 144.5,80.5 142.5,80.5C 142.5,78.5 142.5,76.5 142.5,74.5 Z"/></g>
<g><path style="opacity:1" fill="#f692c6" d="M 102.5,93.5 C 103.167,97.1667 103.833,100.833 104.5,104.5C 104.44,105.043 104.107,105.376 103.5,105.5C 102.509,101.555 102.176,97.5546 102.5,93.5 Z"/></g>
</svg>
